<svg version="1.1" xmlns="http://www.w3.org/2000/svg" xmlns:xlink="http://www.w3.org/1999/xlink" width="788" height="240" viewBox="0 0 788 240"><path stroke="none" fill="#000000" fill-rule="evenodd" d="M82.644707,188.900868C70.048530,187.061018 58.905712,179.122695 49.722067,165.446249C48.224930,163.216687 47.000000,160.684287 47.000000,159.818694C47.000000,158.953102 46.360177,157.713884 45.578172,157.064877C44.796166,156.415870 43.842955,153.998270 43.459924,151.692432C43.076893,149.386594 42.114229,146.231692 41.320669,144.681538C38.019678,138.233319 37.915676,87.929500 41.190044,81.500000C42.030343,79.850000 42.987108,76.756687 43.316187,74.625972C43.645266,72.495256 44.558665,70.020256 45.345963,69.125972C46.133260,68.231687 47.081420,66.068594 47.452985,64.319098C47.824550,62.569602 48.774632,60.602002 49.564279,59.946653C50.353925,59.291305 51.000000,58.296227 51.000000,57.735369C51.000000,57.174511 52.986675,54.390199 55.414833,51.548010C62.596753,43.141483 74.876768,35.694819 87.950055,31.818485C89.899237,31.240537 98.010396,30.948752 106.595174,31.147758C118.793552,31.430533 122.156047,31.818638 123.645119,33.115691C124.665303,34.004321 126.662466,35.006562 128.083258,35.342893C132.595475,36.411030 140.000000,41.083677 140.000000,42.862988C140.000000,43.793588 139.381405,45.442615 138.625345,46.527494C137.869285,47.612372 136.916073,50.525000 136.507097,53.000000C136.098121,55.475000 135.204301,58.625000 134.520829,60.000000C133.837358,61.375000 132.981533,64.435758 132.618995,66.801684C131.934756,71.267037 127.722176,79.000000 125.973887,79.000000C125.423323,79.000000 124.191468,78.620965 123.236431,78.157701C112.110523,72.760804 112.117345,72.762639 102.787783,72.656588C94.253745,72.559580 93.191092,72.767539 89.693585,75.219091C82.573632,80.209771 77.988696,89.902899 82.324404,90.798465C83.327826,91.005728 84.902826,90.521301 85.824404,89.721962C88.405452,87.483266 92.277942,86.899380 104.643286,86.884489C115.320565,86.871631 116.443752,87.064936 122.604282,89.975647C130.756422,93.827348 138.079193,100.994266 141.722774,108.687232C144.416408,114.374506 144.476106,114.899403 144.487923,133.000000C144.499249,150.349760 144.360106,151.747780 142.250000,155.485191C141.012500,157.677046 140.000000,160.237988 140.000000,161.176174C140.000000,162.114360 139.543182,163.164295 138.984849,163.509364C138.426515,163.854433 137.331194,165.664914 136.550802,167.532656C134.691056,171.983654 122.895911,183.559405 119.307711,184.455018C117.763470,184.840460 115.801466,185.784993 114.947702,186.553981C111.755893,189.428851 94.728750,190.665913 82.644707,188.900868zM380.347380,188.933694C374.763439,188.503803 368.897890,187.481437 367.312825,186.661768C365.727761,185.842100 362.646440,184.839993 360.465445,184.434864C356.012961,183.607797 352.326260,181.512184 351.094848,179.108383C350.110961,177.187768 351.268248,165.238252 353.381272,155.500000C354.216652,151.650000 355.260113,146.700000 355.700073,144.500000C356.379704,141.101536 356.919458,140.451846 359.289243,140.179791C360.823327,140.003676 364.002903,140.791176 366.354967,141.929791C368.707032,143.068406 371.501873,144.015946 372.565724,144.035435C373.629576,144.054925 375.625000,144.713979 377.000000,145.500000C378.708611,146.476730 382.761607,146.940346 389.803429,146.964565C399.567062,146.998144 400.287422,146.855928 403.553399,144.250000C406.664706,141.767485 406.999944,141.008428 406.999971,136.446167C406.999996,132.045267 406.575219,130.980620 403.712116,128.205591C401.510964,126.072151 398.784121,124.685566 395.462116,124.010512C392.732952,123.455928 388.175024,122.535817 385.333387,121.965822C381.692824,121.235572 378.296098,121.255453 373.833387,122.033129C361.748176,124.139109 359.065323,124.299103 357.508071,123.006698C355.579709,121.406300 355.579626,113.787696 357.507737,92.500000C358.304788,83.700000 358.966614,68.541795 358.978461,58.815100C358.990307,49.088404 359.434084,39.988473 359.964630,38.593029C360.503673,37.175239 361.937549,35.858362 363.214630,35.608217C367.875106,34.695357 405.039934,32.008201 421.000000,31.430118C434.815274,30.929721 437.825421,31.077949 439.500000,32.341112C441.385551,33.763414 441.495224,34.966886 441.416546,53.371734C441.355161,67.731043 440.992212,73.304458 440.044101,74.446862C438.324975,76.518282 428.387753,76.498840 411.761778,74.391529C404.755755,73.503529 398.322554,73.045983 397.465775,73.374760C396.226359,73.850368 395.968488,75.340791 396.203997,80.667505L396.500000,87.362474L409.075430,87.451845C419.204364,87.523828 422.164341,87.877661 424.290247,89.270607C425.741909,90.221773 427.461388,91.000000 428.111311,91.000000C431.044884,91.000000 439.917630,98.285220 443.704204,103.802987C447.852868,109.848389 449.336050,114.236159 451.269300,126.183190C452.206618,131.975598 452.046341,134.400864 450.066803,144.379007C447.824276,155.682784 446.034525,160.337729 440.722420,168.682716C437.765724,173.327501 425.890582,183.347515 422.000000,184.480330C420.625000,184.880686 418.552031,185.804485 417.393403,186.533217C416.234775,187.261948 410.965011,188.340092 405.682817,188.929092C395.288938,190.088078 395.341810,190.088068 380.347380,188.933694zM512.842275,188.579400C508.630526,187.929659 504.580526,186.920540 503.842275,186.336914C503.104024,185.753287 501.278191,184.984090 499.784870,184.627587C493.914954,183.226252 483.088201,174.233280 478.562794,167.000000C472.627816,157.513702 469.966210,138.803308 473.387072,130.616031C474.149962,128.790179 475.085140,125.455538 475.465244,123.205718C475.845349,120.955898 476.796166,118.584130 477.578172,117.935123C478.360177,117.286116 479.000000,116.310162 479.000000,115.766336C479.000000,115.222509 480.800000,112.627658 483.000000,110.000000C487.581155,104.528314 487.739925,103.756121 485.000000,100.272871C483.900000,98.874447 483.000000,97.100137 483.000000,96.329958C483.000000,95.559779 482.246843,93.780171 481.326318,92.375272C479.093023,88.966833 479.024559,69.153680 481.234263,65.734968C482.028784,64.505736 482.953707,62.093250 483.289646,60.373889C484.403550,54.672849 493.373076,43.271899 500.605969,38.363525C502.521536,37.063586 504.412998,36.000000 504.809218,36.000000C505.205438,36.000000 507.322954,34.987500 509.514809,33.750000C513.139841,31.703342 514.810427,31.500000 528.000000,31.500000C541.189573,31.500000 542.860159,31.703342 546.485191,33.750000C548.677046,34.987500 550.794562,36.000000 551.190782,36.000000C552.614373,36.000000 558.947832,40.802282 562.521266,44.591225C567.389143,49.752679 571.835832,56.450282 572.608667,59.784870C572.954764,61.278191 573.928435,63.602029 574.772379,64.948952C576.953643,68.430221 577.006445,88.336654 574.845511,92.519838C573.998796,94.158927 572.245593,97.616410 570.949503,100.203133L568.592976,104.906265L574.796488,111.366579C578.208420,114.919751 581.000000,118.392908 581.000000,119.084706C581.000000,119.776503 581.787500,121.212696 582.750000,122.276247C584.269126,123.954862 584.500000,126.405920 584.500000,140.854988C584.500000,156.580431 584.365756,157.748607 582.070058,162.000000C576.381179,172.535214 565.545655,182.841990 558.276506,184.632483C556.749428,185.008624 554.600000,185.894623 553.500000,186.601369C548.723793,189.670065 526.819886,190.735708 512.842275,188.579400zM271.500000,184.263787C270.400000,183.986472 268.612372,183.138672 267.527494,182.379789C266.442615,181.620905 264.867615,180.985928 264.027494,180.968728C263.187372,180.951528 260.250000,179.830642 257.500000,178.477871C254.750000,177.125099 251.894431,176.014172 251.154292,176.009143C250.414153,176.004114 248.389153,175.261072 246.654292,174.357938C244.919431,173.454804 242.825000,172.396922 242.000000,172.007089C239.960420,171.043337 239.506944,165.214911 241.311384,163.156460C242.110014,162.245407 243.094891,160.375000 243.500000,159.000000C243.905109,157.625000 244.805109,155.825000 245.500000,155.000000C246.194891,154.175000 247.094891,152.375000 247.500000,151.000000C247.905109,149.625000 248.823275,147.825000 249.540370,147.000000C250.257464,146.175000 251.148389,144.280958 251.520202,142.791018C251.892015,141.301078 252.798150,139.582484 253.533834,138.971920C254.269519,138.361356 255.154293,136.573992 255.500000,135.000000C255.845707,133.426008 256.774632,131.602002 257.564279,130.946653C258.353925,130.291305 259.000000,129.306300 259.000000,128.757754C259.000000,127.843927 266.931464,110.493150 268.946001,107.000000C269.421787,106.175000 273.059056,99.106612 277.028820,91.292471C285.038153,75.526786 285.310551,73.438007 279.239856,74.337995C277.182935,74.642936 266.422353,75.450662 255.327452,76.132941C238.774942,77.150834 234.871824,77.138513 233.577452,76.064279C231.351955,74.217281 231.218120,36.446270 233.426425,33.441130C234.808319,31.560599 236.283385,31.509665 280.676425,31.809604C309.158536,32.002041 326.878440,32.494013 327.500000,33.109604C328.103010,33.706822 328.500000,42.375268 328.500000,54.945012C328.500000,72.836768 328.267833,76.052834 326.861294,77.645012C325.960005,78.665256 324.918580,80.931406 324.547015,82.680902C324.175450,84.430398 323.237276,86.388115 322.462184,87.031385C321.687091,87.674654 320.768944,89.714716 320.421855,91.564854C320.074767,93.414993 319.162859,95.449876 318.395393,96.086816C317.627927,96.723756 317.000000,97.892656 317.000000,98.684370C317.000000,99.476085 315.851242,102.683484 314.447204,105.811925C313.043166,108.940366 311.286486,112.850000 310.543470,114.500000C309.800455,116.150000 308.299476,119.525000 307.207961,122.000000C306.116446,124.475000 304.048127,129.059634 302.611695,132.188075C301.175263,135.316516 300.000000,138.523915 300.000000,139.315630C300.000000,140.107344 299.372073,141.276244 298.604607,141.913184C297.837141,142.550124 296.925233,144.585007 296.578145,146.435146C296.231056,148.285284 295.283983,150.349352 294.473538,151.021962C293.663092,151.694572 293.000000,152.983953 293.000000,153.887254C293.000000,154.790554 292.159996,157.097954 291.133325,159.014809C290.106654,160.931664 288.952729,163.931406 288.569047,165.680902C288.185364,167.430398 287.254293,169.373992 286.500000,170.000000C285.745707,170.626008 284.834175,172.478511 284.474374,174.116673C284.114574,175.754835 282.655714,178.873741 281.232464,181.047575C278.613924,185.047062 276.879907,185.620089 271.500000,184.263787zM537.750000,148.494765C541.109473,144.603312 540.735458,140.073332 536.750000,136.382992C534.962500,134.727854 532.375000,132.821762 531.000000,132.147232C529.625000,131.472701 527.375000,130.270264 526.000000,129.475148C522.419629,127.404742 517.365250,127.634750 515.025436,129.974564C510.457342,134.542658 511.057090,143.955781 516.184680,148.169051C520.063963,151.356604 522.519224,151.940923 530.000000,151.456911C534.431157,151.170212 535.937254,150.594563 537.750000,148.494765zM102.625117,148.082842C106.310819,146.409148 106.879556,145.670537 107.964268,141.148947C109.508335,134.712555 108.681081,131.024774 104.877941,127.390542C102.070079,124.707384 101.324690,124.508731 94.488611,124.621690C89.125200,124.710315 86.224222,125.277081 83.812083,126.707571C80.815388,128.484724 80.525284,129.066063 80.765523,132.812576C81.184690,139.349477 85.740116,146.149859 91.068045,148.192278C96.721145,150.359349 97.630909,150.350734 102.625117,148.082842zM536.414505,83.374047C540.018284,76.926186 539.837345,72.459136 535.803833,68.297607C533.119594,65.528176 531.885907,65.000000 528.101440,65.000000C524.387554,65.000000 523.015389,65.561989 520.297607,68.196167C515.590032,72.758929 515.795138,76.517308 521.047054,81.929048C528.429795,89.536459 532.743561,89.942082 536.414505,83.374047z"/></svg>